<?xml version="1.0" encoding="UTF-8"?>
<svg id="Layer_1" data-name="Layer 1" xmlns="http://www.w3.org/2000/svg" version="1.1" viewBox="0 0 714 153">
  <defs>
    <style>
      .cls-1 {
        fill-rule: evenodd;
      }

      .cls-1, .cls-2 {
        fill: #fff;
        stroke-width: 0px;
      }
    </style>
  </defs>
  <path class="cls-2" d="M685.5,44.4v-18.3h-66.3v96.3h66.3v-18.7h-45.5v-21.8h40v-17.2h-40v-20.3h45.5Z"/>
  <path class="cls-2" d="M597,102c-4.1,1.8-9.4,2.8-15.5,2.8s-10.6-1.3-15-3.9c-4.5-2.7-8.1-6.3-10.8-10.8-2.7-4.6-4-9.9-4-15.6s1.3-11.1,4-15.6,6.3-8.2,10.8-10.8c4.5-2.7,9.6-4,15-4s7.6.5,10.5,1.5c3,1,5.8,2.3,8.2,3.9,2.4,1.6,4.8,3.2,7,5l1,.7v-21.5l-.2-.2c-3.2-2.9-7.1-5.1-11.5-6.8-4.4-1.7-9.6-2.6-15.6-2.6s-13.3,1.2-19.4,3.7c-6.1,2.4-11.5,5.9-16.1,10.4-4.6,4.4-8.3,9.7-11,15.8s-4,13-4,20.4,1.3,14.3,4,20.4,6.3,11.5,11,15.9c4.6,4.4,10.1,7.8,16.1,10.4,6,2.4,12.6,3.6,19.4,3.6s11.5-.9,16.3-2.6c4.9-1.8,9-4.2,12.2-7.2l.2-.2v-20.7l-1,.8c-3.4,2.8-7.3,5.2-11.6,7.2h0Z"/>
  <path class="cls-2" d="M473.4,67.5l-39.9-41.9-.2-.2h-7.5v97h20.8v-56.9l23.5,25.6,3.2,3.4,3.3-3.4,23.2-25.5v56.9h20.8V25.4h-7.5l-39.8,42h.1Z"/>
  <path class="cls-1" d="M149.7,57.7c0-25.2-20.5-42.5-41.2-42.7-3,0-6.2.2-9.1.8-1.3.2-32,6.3-32,6.3-25.2,5-38.4,20.5-39.1,39.8-.2,7.4-.2,35.5-.2,35.5.3,26.3,20,42.7,41.7,42.6,2.8,0,9.3-.9,10.7-1.2,1.2-.2,3.2-.7,6.2-1.2,5.5-1,14-2.7,25.5-5,19.7-3.4,34.1-16.7,36.9-36,1.3-8.5.7-39,.7-39h-.1ZM123,85.2l-19.5,3.8v19.2l-48.7,9.5v-47.8l19.5-3.8v28.6l29.2-5.7v-28.6l-29.2,5.7v-19.1l48.7-9.5v47.8h0Z"/>
  <path class="cls-1" d="M290,57.8l-.7-8.5h-17.7v73.1h19.5v-40.6c0-9.2,7.9-16.5,17.1-16.6,9.1,0,15.8,7.4,15.8,16.6v40.6h19.5v-43.6c-.1-17.5-13.2-31.4-30.5-31.3-9.1,0-17.4,4.1-23.1,10.4h.1Z"/>
  <path class="cls-1" d="M240,23.7l19.5-3.8v19.1l-19.5,3.8s0-19.1,0-19.1Z"/>
  <path class="cls-2" d="M259.5,49.3h-19.5v73.1h19.5V49.3Z"/>
  <path class="cls-1" d="M384.4,143.7l33.6-94.4h-20.1l-12.8,36.2-3.7,11-3-11-12.8-36.2h-20.1l26.2,73.1-9,25.6,21.7-4.3h0Z"/>
  <path class="cls-1" d="M209.6,97.9c0,6,4.5,8.6,7.3,8.6s5.3-.4,7.9-1.2l4.3,14.2c-1.8,1.2-7.3,4.3-17.7,4.3s-21.1-8-21.3-21.5c-.2-9-.2-20.7,0-35h-12.8v-17.8h12.8v-15.9l19.5-3.8v19.7h18.3v17.8h-18.3v30.7h0Z"/>
</svg>